<?xml version="1.0" standalone="no"?>
<!DOCTYPE svg PUBLIC "-//W3C//DTD SVG 20010904//EN"
 "http://www.w3.org/TR/2001/REC-SVG-20010904/DTD/svg10.dtd">
<svg version="1.0" xmlns="http://www.w3.org/2000/svg"
 width="1600.000000pt" height="1068.000000pt" viewBox="0 0 1600.000000 1068.000000"
 preserveAspectRatio="xMidYMid meet">
<metadata>
Created by potrace 1.16, written by Peter Selinger 2001-2019
</metadata>
<g transform="translate(0.000000,1068.000000) scale(0.100000,-0.100000)"
fill="#000000" stroke="none">
<path d="M10575 7520 c-16 -18 -17 -28 -9 -97 8 -68 12 -78 30 -81 11 -2 31 5
44 16 21 17 22 21 10 68 -6 27 -13 63 -14 79 -3 37 -34 45 -61 15z"/>
<path d="M11376 7298 c206 -195 474 -456 616 -601 l137 -139 48 6 c102 15 158
40 90 41 -12 0 -21 5 -20 12 2 7 -4 10 -12 7 -8 -4 -15 -2 -15 4 0 17 28 22
40 6 7 -8 17 -14 22 -14 5 0 -3 12 -17 26 -18 18 -33 25 -51 21 -27 -5 -33 9
-6 17 9 3 3 4 -14 3 -22 -2 -30 1 -31 14 -2 23 -36 56 -51 51 -7 -2 -12 3 -12
11 0 7 -7 14 -14 14 -24 0 -86 47 -81 61 2 6 -1 12 -8 12 -21 0 -273 197 -299
235 -4 5 -8 7 -8 3 0 -4 -11 3 -24 15 -118 109 -374 307 -396 307 -8 0 40 -51
106 -112z"/>
<path d="M5029 7351 c7 -5 11 -13 7 -19 -3 -6 0 -14 7 -19 14 -8 31 -42 29
-56 -4 -14 107 -175 138 -201 39 -32 54 -33 86 -1 29 29 26 40 -40 120 -102
124 -175 185 -220 185 -16 0 -18 -2 -7 -9z"/>
<path d="M4365 7303 c-4 -16 -9 -23 -12 -16 -6 17 -20 4 -86 -77 -28 -35 -59
-72 -67 -80 -9 -9 -29 -34 -45 -55 -17 -22 -36 -44 -42 -48 -7 -4 -13 -14 -13
-20 0 -7 -8 -20 -17 -28 -28 -25 -63 -68 -63 -78 0 -5 -7 -11 -15 -15 -8 -3
-15 -12 -15 -21 0 -8 -6 -15 -13 -15 -8 0 -20 -11 -27 -25 -7 -13 -26 -29 -41
-34 -20 -7 -27 -15 -23 -26 9 -23 -62 -88 -88 -79 -17 5 -19 2 -16 -22 2 -22
-2 -29 -17 -32 -11 -2 -24 -9 -30 -14 -7 -8 -6 -9 2 -4 6 3 14 3 17 -2 2 -4
-5 -9 -16 -9 -12 -1 -26 -7 -32 -14 -8 -9 -7 -10 7 -6 9 4 17 2 17 -4 0 -5
-13 -12 -28 -15 -17 -3 -28 -12 -28 -22 -1 -9 -4 -25 -8 -34 -7 -15 -4 -16 26
-8 37 11 62 12 36 2 -29 -12 -6 -29 47 -35 l50 -6 43 62 c23 34 70 104 105
154 116 173 231 338 297 428 36 50 78 111 92 136 15 25 34 52 43 59 13 11 13
15 3 21 -23 15 -36 10 -43 -18z"/>
<path d="M10624 7204 c-16 -8 -57 -37 -90 -64 -32 -27 -67 -50 -76 -50 -10 0
-18 -5 -18 -11 0 -6 -7 -9 -15 -5 -11 4 -15 -1 -15 -17 0 -40 30 -128 46 -134
26 -10 65 39 115 145 26 56 60 113 75 127 31 28 23 32 -22 9z"/>
<path d="M11526 6850 c4 -105 9 -138 21 -152 20 -23 30 -23 36 0 3 11 5 8 6
-9 0 -14 12 -39 26 -55 22 -26 25 -27 26 -9 1 11 6 3 11 -17 23 -88 45 -15 23
78 -18 78 -18 87 -4 78 8 -4 9 4 4 27 -11 50 -25 75 -35 59 -5 -8 -10 -2 -15
19 -11 50 -25 36 -26 -26 l-2 -58 -10 78 c-5 42 -13 77 -18 77 -5 0 -9 -51
-10 -112 -1 -139 -14 -119 -28 42 l-9 115 4 -135z"/>
<path d="M4284 6843 c-4 -13 -10 -23 -15 -23 -5 0 -14 -11 -19 -25 -5 -14 -14
-25 -20 -25 -10 0 -8 -27 6 -114 2 -16 1 -26 -3 -22 -4 4 -10 30 -13 58 -5 48
-6 50 -21 36 -12 -12 -17 -44 -21 -122 -6 -110 4 -192 17 -148 4 12 11 22 15
22 4 0 8 26 9 57 2 60 11 89 11 35 0 -38 15 -41 40 -9 16 19 18 36 15 137 -3
81 -2 105 4 80 5 -19 7 -56 4 -81 -3 -29 -1 -49 6 -53 8 -5 11 21 11 91 0 99
-13 152 -26 106z"/>
<path d="M12320 6519 c-30 -4 -125 -12 -210 -18 -85 -6 -168 -13 -185 -16 -16
-2 -190 -20 -385 -40 -195 -20 -449 -47 -565 -60 -115 -14 -232 -27 -260 -31
-197 -22 -550 -91 -773 -149 -335 -88 -540 -168 -985 -384 -363 -176 -546
-237 -771 -260 -342 -34 -529 9 -1076 249 -366 160 -711 272 -1060 344 -201
41 -632 106 -965 145 -77 9 -497 47 -745 67 -41 3 -88 7 -105 9 -16 2 -68 7
-115 11 -47 4 -98 8 -115 10 -16 1 -66 5 -110 9 -89 8 -112 16 -75 26 15 4 -4
7 -52 8 -48 1 -78 5 -80 13 -3 8 -12 9 -36 0 -18 -6 -38 -9 -46 -6 -7 3 -19
-2 -26 -11 -7 -8 -19 -15 -27 -15 -8 0 -23 -19 -33 -42 -17 -37 -20 -67 -20
-198 0 -186 16 -489 35 -658 11 -98 21 -140 49 -205 22 -52 57 -178 96 -349
113 -493 208 -755 362 -1002 145 -231 341 -424 566 -556 61 -36 111 -68 111
-72 1 -4 -5 -5 -12 -2 -8 3 -19 -2 -26 -10 -15 -18 0 -28 69 -46 25 -6 77 -27
117 -46 100 -47 302 -87 671 -133 459 -58 728 -69 882 -39 47 9 93 20 103 23
25 10 22 43 -5 47 -16 2 17 23 112 70 282 139 471 310 659 598 41 63 145 255
231 425 85 171 169 331 187 356 100 144 279 218 463 191 127 -18 221 -71 279
-156 35 -51 130 -234 201 -386 77 -164 182 -354 243 -436 216 -292 418 -464
660 -560 38 -15 65 -30 60 -33 -4 -3 -9 -18 -11 -32 -3 -23 3 -29 40 -44 71
-28 227 -30 438 -6 397 47 810 115 940 155 111 35 302 115 324 136 22 21 13
43 -15 35 -36 -12 -19 2 71 59 267 169 476 402 639 708 114 215 192 444 292
848 39 159 88 328 109 383 47 117 56 181 70 490 19 434 14 508 -36 562 -21 22
-44 30 -44 15 0 -5 -5 -10 -11 -10 -6 0 -9 6 -6 13 5 14 -13 15 -93 6z m-960
-200 c-511 -61 -687 -86 -1029 -145 -79 -14 -146 -23 -149 -19 -3 3 -1 5 4 5
6 0 77 14 159 30 175 36 550 94 715 110 63 7 117 13 120 15 3 2 52 6 110 10
58 4 107 9 109 11 2 2 29 4 60 3 38 -1 6 -7 -99 -20z m-7175 -35 c443 -24 757
-55 1200 -119 360 -53 472 -73 480 -85 2 -3 -33 0 -78 7 -599 98 -1361 173
-2002 199 -93 4 -179 11 -190 15 -24 10 198 4 590 -17z m5520 -262 c-6 -5 -82
-37 -170 -72 -141 -55 -332 -141 -717 -323 -64 -31 -149 -67 -190 -82 -109
-40 -294 -85 -341 -84 -33 0 -21 5 53 20 183 38 366 111 820 326 143 68 343
152 450 189 109 37 107 37 95 26z m1940 -136 c101 -28 182 -71 200 -105 8 -17
13 -31 11 -31 -2 0 6 -28 20 -62 68 -173 70 -329 9 -633 -65 -325 -202 -673
-352 -899 -78 -117 -208 -251 -308 -317 -206 -137 -474 -230 -795 -278 -424
-63 -669 -23 -957 155 -85 53 -221 190 -291 293 -180 265 -257 498 -255 776 0
123 3 150 26 221 42 127 113 220 252 328 144 113 286 191 518 287 261 107 655
196 1127 253 281 35 268 34 515 31 169 -2 234 -6 280 -19z m-6400 -105 c845
-106 1313 -237 1658 -463 182 -120 277 -242 313 -405 20 -89 15 -296 -10 -418
-44 -215 -177 -478 -328 -649 -51 -58 -72 -91 -40 -62 12 11 22 14 22 8 0 -14
-174 -176 -208 -193 -15 -7 -35 -19 -44 -27 -9 -8 -22 -11 -28 -7 -6 4 -20 -1
-31 -11 -10 -9 -22 -15 -25 -12 -3 3 11 16 30 28 51 31 44 33 -13 5 -65 -33
-274 -90 -388 -105 -127 -18 -430 -7 -590 19 -466 79 -783 224 -979 449 -211
242 -371 612 -460 1067 -12 62 -18 140 -18 255 -1 143 2 175 22 244 35 120 66
177 115 208 53 33 173 74 257 87 107 16 561 5 745 -18z"/>
</g>
</svg>
