<?xml version="1.0" standalone="no"?>
<!DOCTYPE svg PUBLIC "-//W3C//DTD SVG 20010904//EN"
 "http://www.w3.org/TR/2001/REC-SVG-20010904/DTD/svg10.dtd">
<svg version="1.0" xmlns="http://www.w3.org/2000/svg"
 width="1600.000000pt" height="1067.000000pt" viewBox="0 0 1600.000000 1067.000000"
 preserveAspectRatio="xMidYMid meet">
<metadata>
Created by potrace 1.16, written by Peter Selinger 2001-2019
</metadata>
<g transform="translate(0.000000,1067.000000) scale(0.100000,-0.100000)"
fill="#000000" stroke="none">
<path d="M11632 5843 c-6 -3 -10 -9 -6 -14 8 -13 -10 -11 -25 4 -10 10 -11 9
-5 -6 8 -23 43 -31 107 -23 74 9 478 10 500 1 9 -4 17 -13 17 -21 0 -16 47
-19 70 -4 12 8 12 10 1 10 -8 0 -19 7 -25 15 -8 10 -37 16 -96 19 -47 3 -134
8 -195 11 -79 5 -106 4 -95 -4 21 -15 -44 -15 -73 0 -21 12 -152 21 -175 12z"/>
<path d="M3563 5815 c-13 -5 -23 -13 -23 -17 0 -3 10 -9 23 -11 12 -2 -15 -5
-59 -6 -45 0 -104 3 -133 9 -28 5 -90 10 -138 11 -80 1 -88 0 -106 -22 -20
-25 -20 -15 -4 -349 1 -25 6 -51 11 -59 5 -8 4 -16 -5 -22 -11 -6 -11 -11 -2
-20 6 -6 9 -17 6 -25 -9 -24 17 -82 40 -88 37 -10 107 -7 107 5 0 5 5 7 10 4
6 -3 19 -3 30 0 17 5 19 14 17 81 -1 47 -6 74 -13 74 -15 0 -24 62 -12 78 15
18 28 15 28 -8 0 -11 5 -20 10 -20 6 0 10 -8 10 -17 0 -9 3 -13 7 -10 3 4 12
2 20 -4 13 -12 19 2 6 15 -14 13 -30 95 -21 104 5 5 17 24 26 43 15 30 22 34
52 32 19 0 27 1 18 4 -10 2 -18 8 -18 13 0 4 -8 6 -18 3 -12 -3 -19 1 -19 10
0 16 44 20 53 6 3 -5 15 -9 28 -9 42 0 88 -21 81 -37 -3 -11 -1 -13 10 -9 9 3
15 0 15 -9 0 -8 3 -15 8 -15 4 0 15 -12 24 -27 l17 -28 -3 30 c-2 17 -4 46 -5
66 -1 34 -3 37 -36 41 -19 2 -39 0 -44 -5 -5 -5 -25 -2 -46 7 -21 9 -50 16
-65 16 -43 0 -56 24 -31 56 13 16 19 35 16 46 -6 17 1 18 97 18 88 -1 100 -3
86 -14 -19 -14 -24 -36 -10 -36 14 0 43 36 36 43 -4 4 6 12 22 18 21 8 111 9
315 4 204 -5 289 -4 293 4 4 7 -1 11 -13 11 -12 0 -21 5 -21 11 0 9 -40 10
-147 6 -82 -3 -229 -3 -328 1 -112 4 -188 3 -202 -3z"/>
<path d="M12575 5800 c-3 -6 -33 -8 -71 -5 -51 4 -64 2 -64 -9 0 -20 -34 -29
-80 -21 -21 4 -46 3 -54 -2 -10 -5 0 -8 27 -9 23 0 69 -9 101 -18 56 -17 59
-19 40 -33 -18 -14 -18 -15 6 -9 21 6 22 5 8 -4 -13 -8 -24 -8 -37 0 -13 7
-22 7 -26 0 -3 -5 -18 -10 -33 -11 -15 0 -36 -4 -47 -9 -13 -5 -1 -6 31 -3 49
5 51 4 56 -21 5 -23 2 -26 -26 -27 l-31 -2 30 -6 c32 -7 33 -8 37 -138 2 -43
5 -53 22 -57 14 -4 27 1 38 15 10 11 23 17 29 13 6 -3 15 0 20 7 4 7 11 11 14
7 7 -7 7 -18 -1 -114 -6 -67 -5 -72 15 -79 12 -3 21 -9 21 -13 0 -7 68 -7 75
0 6 6 27 442 23 498 l-3 55 -57 3 c-31 1 -60 -2 -63 -8z"/>
<path d="M3581 5493 c-1 -9 -17 -13 -47 -13 -32 0 -44 -4 -41 -12 2 -7 11 -12
20 -12 9 1 14 -2 11 -7 -3 -5 -16 -9 -30 -9 -13 0 -24 -4 -24 -9 0 -17 26 -30
70 -33 39 -3 46 -6 49 -28 l4 -25 8 25 c6 18 8 13 4 -20 -2 -32 -1 -40 6 -28
5 10 18 15 30 13 18 -4 20 -1 15 18 -3 12 -6 40 -7 62 -1 22 -3 31 -6 20 -8
-32 -25 -44 -23 -15 1 14 2 36 1 49 -1 19 -4 21 -15 12 -11 -10 -15 -8 -19 6
-3 10 -5 12 -6 6z"/>
<path d="M9116 5409 c3 -5 -2 -9 -10 -9 -8 0 -22 -7 -30 -16 -9 -8 -21 -12
-27 -8 -7 4 -9 3 -6 -2 3 -6 -9 -16 -26 -24 -18 -7 -51 -26 -75 -42 -23 -16
-48 -27 -55 -25 -9 4 -9 6 1 6 13 1 52 36 53 49 0 4 10 12 22 19 12 7 18 12
14 13 -16 0 -157 -82 -157 -92 0 -6 -8 -7 -17 -4 -10 4 -15 4 -11 1 3 -3 -5
-17 -19 -31 -19 -19 -23 -33 -22 -68 l3 -43 35 14 c122 51 220 121 205 145 -4
5 2 8 12 6 12 -2 18 2 16 11 -2 9 3 11 13 7 9 -3 14 -2 10 3 -7 13 5 42 16 36
7 -5 89 42 89 50 0 2 -9 5 -20 8 -11 3 -18 1 -14 -4z"/>
<path d="M10655 5295 c-185 -16 -306 -34 -323 -48 -7 -6 -42 -10 -78 -11 -35
0 -59 -3 -52 -7 9 -6 8 -10 -5 -15 -9 -3 -17 -14 -17 -24 0 -20 23 -32 45 -24
12 5 15 -4 15 -48 l0 -55 -30 5 c-29 4 -30 3 -30 -37 l0 -41 40 0 40 0 0 40
c0 31 4 40 17 40 14 0 15 -13 10 -122 -4 -66 -7 -138 -7 -160 0 -31 -3 -38
-20 -38 -11 0 -20 -6 -20 -14 0 -8 -8 -17 -19 -21 -10 -3 -26 -14 -36 -25 -17
-19 -17 -20 3 -20 28 0 28 -15 0 -34 -16 -11 -46 -16 -105 -16 l-83 0 0 -30
c0 -28 -2 -30 -39 -30 -22 0 -41 -5 -43 -11 -2 -6 -14 -2 -28 11 -17 14 -21
23 -12 26 21 9 13 33 -13 40 -14 3 -25 10 -25 15 0 5 -5 9 -10 9 -6 0 -5 -8 2
-20 11 -17 10 -22 -2 -30 -22 -14 -46 -12 -64 5 -8 8 -31 15 -50 15 -25 0 -36
-4 -36 -15 0 -11 -11 -15 -40 -15 -29 0 -40 4 -40 15 0 11 -11 15 -40 15 -29
0 -40 -4 -40 -15 0 -11 -11 -15 -40 -15 -36 0 -40 2 -40 26 0 42 -21 54 -94
54 -59 0 -66 -2 -66 -20 0 -18 -7 -20 -75 -20 -68 0 -75 -2 -75 -20 0 -22 -15
-27 -23 -7 -4 9 -8 8 -16 -3 -7 -9 -11 -10 -11 -3 0 6 5 15 10 18 6 3 10 16
10 28 -1 20 -2 19 -17 -7 -8 -16 -16 -34 -17 -40 -6 -30 -20 -62 -33 -71 -49
-36 -4 -489 72 -720 127 -386 304 -594 587 -689 69 -23 241 -57 333 -66 169
-17 479 22 675 83 92 29 230 86 250 102 8 7 26 16 40 20 87 26 358 261 448
387 69 97 160 305 225 518 37 119 40 132 42 160 1 14 10 72 20 130 16 93 17
119 6 224 -26 255 -93 416 -214 514 -74 60 -150 97 -227 112 -71 13 -449 10
-635 -5z"/>
<path d="M4555 5279 c-117 -12 -161 -29 -241 -95 -149 -121 -215 -275 -239
-551 -21 -246 126 -742 295 -998 147 -221 366 -394 622 -490 51 -20 100 -39
109 -44 18 -10 202 -53 330 -76 47 -9 169 -18 279 -21 164 -4 213 -2 310 14
141 24 151 27 224 52 32 11 63 17 69 13 6 -4 7 -1 2 7 -6 10 -4 12 9 7 11 -5
15 -3 10 5 -5 8 -2 9 10 5 10 -4 15 -3 11 3 -3 6 -2 10 3 10 15 0 146 104 186
147 19 21 43 54 53 73 10 19 21 37 24 40 15 12 59 91 59 105 0 8 4 15 9 15 9
0 22 27 27 56 1 6 18 51 37 100 100 249 147 667 93 820 l-14 39 -7 -30 c-10
-46 -13 -52 -14 -30 -1 11 3 35 8 53 6 18 6 30 1 27 -4 -2 -11 -22 -14 -42
-16 -91 -17 -94 -37 -91 -21 3 -27 23 -7 23 14 0 22 29 14 50 -8 22 -36 6 -36
-21 0 -15 -6 -24 -15 -24 -17 0 -19 34 -6 90 l8 35 -44 -4 -43 -3 0 -59 0 -59
-40 0 -40 0 0 45 0 45 -120 -7 -120 -6 0 23 c0 22 -2 23 -61 16 -34 -3 -70 -6
-80 -6 -11 0 -19 -7 -19 -15 0 -8 -7 -15 -15 -15 -11 0 -15 -11 -15 -40 0 -36
-2 -40 -25 -40 -15 0 -25 6 -25 14 0 8 -6 17 -12 20 -10 5 -10 7 0 12 7 3 12
26 12 60 0 47 2 54 20 54 17 0 20 7 20 51 0 37 -3 48 -12 43 -7 -5 -52 -7
-100 -5 l-88 3 0 -26 c0 -24 -4 -26 -40 -26 -33 0 -40 3 -40 20 0 13 -7 20
-20 20 -17 0 -20 -7 -20 -40 l0 -40 -50 0 -50 0 0 -39 c0 -39 -20 -68 -40 -56
-5 3 -10 26 -10 51 0 37 -3 44 -20 44 -17 0 -20 -7 -20 -40 0 -33 -4 -40 -19
-40 -10 0 -21 -7 -25 -15 -4 -11 -21 -15 -66 -15 -47 0 -60 3 -60 15 0 10 10
15 30 15 28 0 30 2 30 40 0 38 -2 40 -30 40 -28 0 -30 2 -30 40 l0 40 -80 0
-80 0 -17 36 c-14 28 -15 37 -5 43 10 6 10 11 -3 21 -10 9 -15 30 -15 71 0 56
2 61 39 94 21 20 42 47 45 60 4 14 13 25 21 25 9 0 15 10 15 25 0 23 -4 25
-40 25 l-40 0 0 40 c0 39 1 40 37 40 35 0 36 0 18 20 -10 11 -26 22 -36 25
-26 9 -24 23 4 28 13 3 6 5 -18 6 -22 2 -58 9 -80 17 -22 7 -29 11 -15 9 78
-16 102 -12 30 4 -94 22 -115 24 -85 10 17 -8 16 -9 -5 -3 -97 23 -401 30
-575 13z"/>
<path d="M8496 5121 c-3 -5 -27 -12 -53 -16 -35 -5 -43 -9 -32 -17 10 -7 -1
-8 -36 -5 -34 4 -56 1 -69 -9 -11 -8 -30 -14 -43 -14 -19 0 -23 -6 -24 -32 -1
-18 -1 -37 0 -42 1 -5 -4 -13 -11 -18 -8 -6 3 -8 31 -5 24 3 47 10 50 15 3 6
17 10 31 11 57 1 183 38 175 51 -4 6 -1 10 6 10 7 0 10 3 6 6 -3 3 -2 17 3 30
8 19 5 26 -10 34 -11 6 -21 6 -24 1z"/>
<path d="M3253 5045 c9 -7 15 -14 13 -16 -3 -2 19 -4 47 -5 28 0 53 -6 55 -12
2 -7 15 -9 33 -5 28 5 43 -11 17 -19 -7 -3 14 -8 47 -11 33 -4 90 -15 127 -23
50 -12 74 -14 96 -6 19 6 45 7 68 2 49 -11 168 -15 182 -6 6 4 20 3 29 -2 27
-14 83 -23 83 -13 0 17 -48 31 -136 41 -49 5 -142 19 -205 30 -63 11 -123 20
-133 20 -19 0 -19 -1 -2 -13 15 -11 11 -12 -26 -11 -62 1 -140 25 -134 41 4
10 -10 13 -52 14 -31 1 -72 2 -91 4 -29 2 -32 0 -18 -10z"/>
<path d="M12250 5039 c-79 -18 -185 -36 -192 -32 -5 2 -8 0 -8 -5 0 -5 -12 -9
-27 -9 -28 0 -101 -9 -158 -19 -42 -7 -85 -25 -85 -34 0 -9 40 -1 55 11 18 13
80 15 78 2 -2 -8 6 -9 29 -3 17 5 35 7 41 3 6 -3 7 -1 3 5 -5 9 7 12 41 13 26
1 53 1 60 0 6 -1 14 3 18 9 8 13 62 13 67 0 2 -7 15 -7 37 0 19 5 46 7 60 4
21 -4 23 -3 11 6 -12 8 -6 10 25 5 35 -4 37 -4 11 5 -19 6 -46 5 -78 -1 -27
-6 -52 -9 -55 -6 -3 3 12 9 33 13 21 4 61 15 89 25 48 18 49 18 15 17 -19 0
-51 -4 -70 -9z"/>
<path d="M12426 4814 c-15 -22 -40 -59 -57 -84 -16 -25 -34 -45 -38 -45 -16 0
-25 -15 -10 -15 11 -1 10 -4 -3 -14 -10 -7 -34 -55 -53 -107 -20 -52 -47 -118
-61 -147 -14 -29 -22 -57 -19 -62 9 -15 -15 -81 -27 -74 -6 4 -8 -1 -3 -15 4
-14 2 -21 -5 -19 -6 2 -22 -24 -35 -58 -24 -64 -93 -214 -126 -276 -14 -26
-16 -39 -8 -44 13 -8 29 13 29 38 0 9 4 19 9 23 5 3 17 29 27 58 9 28 25 64
35 79 11 14 19 33 19 40 0 17 49 138 49 123 1 -18 -38 -133 -57 -172 -11 -21
-25 -56 -32 -78 -7 -22 -26 -66 -41 -99 -16 -32 -29 -63 -29 -69 0 -6 -8 -20
-19 -31 -10 -12 -21 -37 -24 -56 -10 -59 130 242 183 395 87 252 140 396 152
418 12 21 18 41 20 63 1 5 17 11 37 13 34 2 71 24 71 43 0 5 7 16 16 25 8 9
13 22 9 30 -3 11 -1 13 10 9 18 -6 19 -2 4 26 -8 15 -8 19 0 14 6 -4 11 0 11
8 0 9 4 16 9 16 19 0 20 45 2 64 -19 18 -20 18 -45 -20z"/>
<path d="M8535 4489 c-164 -10 -258 -21 -272 -32 -9 -6 -13 -6 -13 2 0 31 -49
-7 -50 -39 0 -11 3 -11 12 -2 18 18 27 15 21 -7 -4 -14 -15 -21 -39 -23 l-34
-3 15 -29 c20 -37 19 -47 -2 -40 -12 4 -10 -1 7 -16 76 -65 121 -115 150 -165
18 -31 39 -59 46 -62 8 -3 14 -13 14 -23 0 -15 19 -64 60 -155 18 -42 59 -143
90 -225 103 -272 283 -616 315 -604 7 3 20 -5 29 -18 14 -19 16 -20 16 -4 0
15 6 17 27 13 18 -3 32 1 41 11 12 16 13 15 8 -2 -7 -21 19 -56 41 -56 7 0 13
-5 13 -11 0 -5 5 -7 10 -4 6 3 10 2 10 -2 0 -5 10 -14 23 -22 14 -8 9 1 -14
25 -107 114 -107 113 -86 152 14 24 10 95 -4 86 -5 -3 -6 2 -3 11 8 21 -56
127 -73 121 -7 -3 -13 -1 -13 5 0 6 -4 7 -10 4 -5 -3 -10 -1 -10 4 0 6 7 11
16 11 13 0 13 5 -4 33 -11 17 -32 56 -47 84 -15 29 -31 50 -36 47 -5 -3 -6 2
-3 10 4 11 0 16 -10 16 -9 0 -16 8 -16 20 0 28 -20 25 -21 -2 0 -13 -3 -18 -5
-11 -3 7 -12 9 -20 6 -24 -9 -16 11 11 28 l25 15 -20 22 c-11 11 -20 26 -20
31 0 6 -13 25 -29 43 -42 48 -148 272 -202 427 -31 88 -84 172 -143 230 -31
29 -56 56 -56 60 0 3 30 7 67 7 217 5 443 18 436 24 -12 12 -125 16 -248 9z"/>
<path d="M7201 4468 c-23 -4 -100 -6 -171 -5 -72 1 -130 0 -130 -4 0 -10 111
-14 313 -10 217 3 307 -3 307 -23 0 -7 -11 -23 -25 -36 -15 -14 -41 -47 -59
-75 -42 -64 -110 -231 -100 -246 4 -7 3 -9 -4 -6 -6 4 -23 -24 -42 -70 -36
-86 -58 -127 -107 -191 -31 -41 -174 -321 -187 -368 -3 -11 -30 -57 -60 -102
-63 -94 -84 -164 -60 -199 8 -13 19 -23 24 -23 23 0 7 -47 -27 -84 -21 -23
-27 -31 -13 -20 17 14 37 20 60 18 19 -1 38 3 42 9 4 6 10 8 14 4 4 -3 1 -13
-6 -22 -7 -8 -9 -15 -5 -15 12 0 76 77 120 146 66 102 180 335 245 499 166
419 219 522 324 628 21 20 33 37 27 37 -7 0 -7 8 -1 24 7 20 6 26 -8 31 -9 3
-30 23 -46 45 -16 21 -36 42 -45 46 -14 5 -99 10 -288 17 -28 1 -70 -1 -92 -5z"/>
<path d="M3590 4364 c0 -6 9 -33 19 -60 10 -27 31 -87 46 -134 14 -47 31 -94
37 -104 5 -10 18 -42 28 -70 28 -81 140 -359 150 -371 4 -5 23 -39 40 -75 39
-77 135 -233 170 -275 50 -60 126 -131 170 -160 25 -16 50 -33 56 -37 7 -5 14
-3 17 7 4 9 -8 25 -36 44 -132 94 -279 275 -363 447 -34 70 -59 112 -66 108
-6 -4 -8 -2 -5 3 6 10 -85 257 -133 361 -11 23 -20 49 -20 57 0 8 -5 15 -11
15 -5 0 -8 4 -4 9 3 5 -3 29 -14 53 -11 24 -33 77 -50 118 -16 41 -30 70 -31
64z"/>
<path d="M4217 3784 c-3 -3 -2 -14 3 -23 4 -9 24 -51 44 -93 68 -143 224 -323
362 -415 113 -76 292 -164 359 -177 26 -5 25 -4 -7 8 -33 13 -176 83 -238 117
-59 32 -181 133 -260 215 -47 49 -88 87 -91 87 -3 -1 -6 4 -6 11 0 6 -24 48
-53 91 -30 44 -66 103 -80 132 -15 29 -30 50 -33 47z"/>
<path d="M11880 3659 c0 -9 -7 -22 -15 -29 -8 -7 -15 -18 -15 -24 0 -6 7 -3
14 7 7 9 16 17 19 17 15 0 -73 -159 -110 -200 -23 -24 -25 -30 -27 -60 -1 -8
-10 -16 -20 -18 -27 -6 -59 -38 -51 -51 3 -7 1 -10 -6 -9 -7 2 -14 -1 -14 -7
-4 -29 -25 -51 -111 -116 -52 -39 -94 -75 -94 -79 0 -4 7 -11 16 -14 21 -8 85
30 149 88 28 25 56 46 64 46 8 0 12 3 9 6 -4 3 15 34 40 69 26 35 57 78 69 97
33 52 114 210 110 215 -3 2 -1 20 3 39 4 19 4 34 -1 34 -5 0 -9 -6 -9 -12 0
-9 -4 -8 -10 2 -8 13 -10 13 -10 -1z"/>
<path d="M3835 3580 c5 -7 8 -31 6 -51 -1 -21 3 -40 8 -44 6 -3 8 -12 5 -19
-3 -8 -1 -17 5 -21 6 -3 11 -15 11 -26 0 -25 37 -99 50 -99 6 0 10 5 10 11 0
7 9 0 20 -14 24 -30 26 -45 5 -27 -12 10 -15 10 -15 0 0 -6 9 -14 20 -17 11
-3 20 -12 20 -21 0 -13 3 -12 16 4 15 19 15 18 9 -3 -3 -12 -1 -25 6 -29 8 -5
9 -3 4 6 -5 8 -3 11 6 8 8 -3 14 -9 14 -14 0 -5 4 -15 8 -21 5 -8 4 -13 -2
-13 -6 0 -11 -4 -11 -10 0 -5 8 -10 18 -10 10 0 23 -5 29 -11 15 -15 11 20 -7
51 -8 14 -15 30 -16 35 0 6 -2 16 -2 23 -1 7 -9 12 -18 10 -9 -2 -20 4 -24 12
-4 8 -16 33 -26 54 -33 69 -38 76 -56 76 -23 0 -78 76 -78 107 0 14 4 21 10
18 19 -12 10 12 -12 31 -12 11 -18 13 -13 4z"/>
<path d="M11915 3507 c-20 -24 -57 -98 -51 -104 3 -3 -5 -14 -17 -23 -13 -10
-32 -34 -42 -54 -11 -20 -23 -36 -27 -36 -5 0 -8 -6 -8 -13 0 -8 -31 -47 -69
-87 -47 -51 -67 -79 -64 -92 3 -10 9 -18 14 -18 13 0 159 152 192 200 17 25
34 47 37 50 3 3 21 26 38 51 26 38 30 54 26 85 -5 44 -15 57 -29 41z"/>
<path d="M11380 3062 c-25 -16 -79 -43 -120 -62 -41 -18 -99 -43 -128 -56 -29
-13 -57 -24 -62 -24 -6 0 -18 -4 -28 -9 -35 -20 -180 -71 -267 -95 -109 -31
-205 -50 -345 -70 -222 -32 -291 -37 -480 -37 -184 0 -287 11 -300 31 -3 5
-62 23 -130 40 -211 51 -271 75 -390 157 -24 17 -24 17 -11 0 19 -24 -4 -23
-46 3 -18 11 -33 18 -33 15 0 -2 -18 2 -40 10 l-40 14 15 -37 c25 -60 200
-210 310 -265 56 -28 193 -72 201 -64 3 2 -7 7 -21 11 -31 8 -32 24 -2 35 19
8 18 9 -11 9 -18 -1 -28 -4 -22 -8 9 -6 9 -10 -1 -16 -7 -4 -14 -3 -17 4 -2 7
-10 12 -17 12 -7 0 -23 9 -36 20 l-24 19 62 -4 c34 -2 73 -7 85 -11 21 -6 22
-5 8 11 -14 17 -13 18 20 11 131 -26 522 -30 720 -7 262 32 492 70 484 83 -3
4 1 5 9 2 17 -6 352 104 447 148 148 67 270 133 270 145 0 19 -9 16 -60 -15z"/>
<path d="M6805 2957 c-52 -51 -143 -104 -102 -59 9 9 -51 -15 -133 -55 -166
-81 -254 -108 -383 -119 -60 -5 -84 -10 -75 -16 9 -7 3 -8 -18 -4 -17 3 -36 0
-43 -7 -17 -17 -307 -13 -486 7 -255 29 -504 81 -671 141 -57 21 -94 30 -92
23 3 -7 29 -20 59 -30 30 -10 63 -22 74 -27 59 -26 324 -87 455 -107 274 -40
580 -52 780 -31 74 8 137 13 139 11 2 -2 -9 -9 -25 -16 l-28 -13 30 -6 c29 -6
29 -6 4 -12 -104 -23 -178 -35 -233 -36 -23 -1 -36 -5 -32 -11 3 -5 -3 -10
-15 -10 -12 0 -19 3 -17 8 3 4 -5 7 -17 7 -18 0 -22 -4 -18 -20 5 -17 3 -18
-11 -7 -9 8 -24 11 -34 8 -20 -6 -149 -20 -173 -18 -8 0 -32 3 -53 5 -30 4
-37 2 -35 -10 4 -18 145 -26 151 -9 3 8 8 8 18 0 13 -10 77 -10 207 0 24 1 47
7 50 13 5 7 22 9 49 3 24 -4 40 -3 37 1 -3 5 10 10 28 11 18 1 44 3 58 3 60 4
155 18 170 26 8 4 49 20 90 35 79 28 126 54 100 54 -8 0 3 15 25 33 22 17 46
40 55 50 8 10 31 20 52 23 26 5 56 24 107 71 39 36 71 69 71 75 0 6 -8 5 -17
-4 -21 -17 -86 -48 -102 -48 -16 0 -13 13 7 32 9 9 22 23 29 31 20 24 -8 28
-32 4z"/>
</g>
</svg>
